<mxfile host="app.diagrams.net" modified="2023-12-11T19:42:53.832Z" agent="5.0 (Windows)" etag="PLadcofndhvAKPgmkTLF" version="20.8.13" type="github">
  <diagram name="Strona-1" id="hXzvowjQRAWf8-JU-ZpP">
    <mxGraphModel dx="574" dy="306" grid="1" gridSize="3" guides="1" tooltips="1" connect="1" arrows="1" fold="1" page="1" pageScale="1" pageWidth="827" pageHeight="1169" math="0" shadow="0">
      <root>
        <mxCell id="0" />
        <mxCell id="1" parent="0" />
        <mxCell id="as4iFgCWQogI6HnyhADF-5" value="" style="rounded=0;whiteSpace=wrap;html=1;fillColor=none;rotation=30;" vertex="1" parent="1">
          <mxGeometry x="561.99" y="296.25" width="75" height="25" as="geometry" />
        </mxCell>
        <mxCell id="O6azC5yQEUZpfAAA6BgK-26" value="" style="rounded=0;whiteSpace=wrap;html=1;fillColor=none;" parent="1" vertex="1">
          <mxGeometry x="430" y="275" width="135" height="30" as="geometry" />
        </mxCell>
        <mxCell id="O6azC5yQEUZpfAAA6BgK-18" value="" style="rounded=0;whiteSpace=wrap;html=1;rotation=-90;fillColor=none;" parent="1" vertex="1">
          <mxGeometry x="398.13" y="336.13" width="93.75" height="30" as="geometry" />
        </mxCell>
        <mxCell id="O6azC5yQEUZpfAAA6BgK-6" value="" style="rounded=0;whiteSpace=wrap;html=1;fillColor=none;" parent="1" vertex="1">
          <mxGeometry x="322" y="410" width="36" height="60" as="geometry" />
        </mxCell>
        <mxCell id="O6azC5yQEUZpfAAA6BgK-7" value="" style="rounded=0;whiteSpace=wrap;html=1;fillColor=none;" parent="1" vertex="1">
          <mxGeometry x="322" y="380" width="120" height="30" as="geometry" />
        </mxCell>
        <mxCell id="O6azC5yQEUZpfAAA6BgK-3" value="" style="ellipse;whiteSpace=wrap;html=1;aspect=fixed;fillColor=default;" parent="1" vertex="1">
          <mxGeometry x="430" y="380" width="30" height="30" as="geometry" />
        </mxCell>
        <mxCell id="O6azC5yQEUZpfAAA6BgK-8" value="" style="endArrow=classic;startArrow=classic;html=1;rounded=0;" parent="1" edge="1">
          <mxGeometry width="50" height="50" relative="1" as="geometry">
            <mxPoint x="250" y="400" as="sourcePoint" />
            <mxPoint x="250" y="510" as="targetPoint" />
          </mxGeometry>
        </mxCell>
        <mxCell id="O6azC5yQEUZpfAAA6BgK-12" value="" style="rounded=0;whiteSpace=wrap;html=1;fillColor=none;" parent="1" vertex="1">
          <mxGeometry x="280" y="470" width="120" height="40" as="geometry" />
        </mxCell>
        <mxCell id="O6azC5yQEUZpfAAA6BgK-13" value="" style="endArrow=none;dashed=1;html=1;dashPattern=1 3;strokeWidth=2;rounded=0;entryX=0;entryY=1;entryDx=0;entryDy=0;" parent="1" target="O6azC5yQEUZpfAAA6BgK-12" edge="1">
          <mxGeometry width="50" height="50" relative="1" as="geometry">
            <mxPoint x="250" y="510" as="sourcePoint" />
            <mxPoint x="430" y="330" as="targetPoint" />
          </mxGeometry>
        </mxCell>
        <mxCell id="O6azC5yQEUZpfAAA6BgK-19" value="" style="endArrow=none;dashed=1;html=1;dashPattern=1 3;strokeWidth=2;rounded=0;entryX=0.15;entryY=0.667;entryDx=0;entryDy=0;entryPerimeter=0;" parent="1" edge="1">
          <mxGeometry width="50" height="50" relative="1" as="geometry">
            <mxPoint x="340" y="425" as="sourcePoint" />
            <mxPoint x="340" y="395.01" as="targetPoint" />
          </mxGeometry>
        </mxCell>
        <mxCell id="O6azC5yQEUZpfAAA6BgK-22" value="" style="endArrow=classic;startArrow=classic;html=1;rounded=0;" parent="1" edge="1">
          <mxGeometry width="50" height="50" relative="1" as="geometry">
            <mxPoint x="345" y="425" as="sourcePoint" />
            <mxPoint x="445" y="425" as="targetPoint" />
          </mxGeometry>
        </mxCell>
        <mxCell id="O6azC5yQEUZpfAAA6BgK-23" value="a1" style="text;html=1;strokeColor=none;fillColor=none;align=center;verticalAlign=middle;whiteSpace=wrap;rounded=0;" parent="1" vertex="1">
          <mxGeometry x="370" y="430" width="60" height="30" as="geometry" />
        </mxCell>
        <mxCell id="O6azC5yQEUZpfAAA6BgK-24" value="d0" style="text;html=1;strokeColor=none;fillColor=none;align=center;verticalAlign=middle;whiteSpace=wrap;rounded=0;" parent="1" vertex="1">
          <mxGeometry x="210" y="425" width="60" height="30" as="geometry" />
        </mxCell>
        <mxCell id="O6azC5yQEUZpfAAA6BgK-25" value="" style="ellipse;whiteSpace=wrap;html=1;aspect=fixed;fillColor=default;" parent="1" vertex="1">
          <mxGeometry x="430" y="295" width="30" height="30" as="geometry" />
        </mxCell>
        <mxCell id="O6azC5yQEUZpfAAA6BgK-29" value="" style="endArrow=classic;startArrow=classic;html=1;rounded=0;" parent="1" edge="1">
          <mxGeometry width="50" height="50" relative="1" as="geometry">
            <mxPoint x="380" y="310" as="sourcePoint" />
            <mxPoint x="380.8" y="393" as="targetPoint" />
          </mxGeometry>
        </mxCell>
        <mxCell id="O6azC5yQEUZpfAAA6BgK-30" value="a3" style="text;html=1;strokeColor=none;fillColor=none;align=center;verticalAlign=middle;whiteSpace=wrap;rounded=0;" parent="1" vertex="1">
          <mxGeometry x="338.13" y="282.5" width="60" height="30" as="geometry" />
        </mxCell>
        <mxCell id="O6azC5yQEUZpfAAA6BgK-33" value="" style="ellipse;whiteSpace=wrap;html=1;aspect=fixed;fillColor=default;" parent="1" vertex="1">
          <mxGeometry x="550" y="275" width="30" height="30" as="geometry" />
        </mxCell>
        <mxCell id="O6azC5yQEUZpfAAA6BgK-34" value="" style="endArrow=classic;startArrow=classic;html=1;rounded=0;" parent="1" edge="1">
          <mxGeometry width="50" height="50" relative="1" as="geometry">
            <mxPoint x="445" y="248" as="sourcePoint" />
            <mxPoint x="565" y="248" as="targetPoint" />
          </mxGeometry>
        </mxCell>
        <mxCell id="O6azC5yQEUZpfAAA6BgK-35" value="d4" style="text;html=1;strokeColor=none;fillColor=none;align=center;verticalAlign=middle;whiteSpace=wrap;rounded=0;" parent="1" vertex="1">
          <mxGeometry x="475" y="224" width="60" height="30" as="geometry" />
        </mxCell>
        <mxCell id="O6azC5yQEUZpfAAA6BgK-37" value="" style="ellipse;whiteSpace=wrap;html=1;aspect=fixed;fillColor=default;" parent="1" vertex="1">
          <mxGeometry x="438" y="388" width="15" height="15" as="geometry" />
        </mxCell>
        <mxCell id="O6azC5yQEUZpfAAA6BgK-40" value="" style="endArrow=none;dashed=1;html=1;dashPattern=1 3;strokeWidth=2;rounded=0;entryX=0.15;entryY=0.667;entryDx=0;entryDy=0;entryPerimeter=0;" parent="1" edge="1">
          <mxGeometry width="50" height="50" relative="1" as="geometry">
            <mxPoint x="445" y="430" as="sourcePoint" />
            <mxPoint x="444.71000000000004" y="390" as="targetPoint" />
          </mxGeometry>
        </mxCell>
        <mxCell id="O6azC5yQEUZpfAAA6BgK-42" value="" style="ellipse;whiteSpace=wrap;html=1;aspect=fixed;fillColor=default;" parent="1" vertex="1">
          <mxGeometry x="438" y="302.5" width="15" height="15" as="geometry" />
        </mxCell>
        <mxCell id="O6azC5yQEUZpfAAA6BgK-43" value="" style="ellipse;whiteSpace=wrap;html=1;aspect=fixed;fillColor=default;" parent="1" vertex="1">
          <mxGeometry x="557.5" y="282.5" width="15" height="15" as="geometry" />
        </mxCell>
        <mxCell id="O6azC5yQEUZpfAAA6BgK-44" value="" style="endArrow=none;dashed=1;html=1;dashPattern=1 3;strokeWidth=2;rounded=0;" parent="1" edge="1">
          <mxGeometry width="50" height="50" relative="1" as="geometry">
            <mxPoint x="445" y="305" as="sourcePoint" />
            <mxPoint x="445" y="247" as="targetPoint" />
          </mxGeometry>
        </mxCell>
        <mxCell id="O6azC5yQEUZpfAAA6BgK-45" value="" style="endArrow=none;dashed=1;html=1;dashPattern=1 3;strokeWidth=2;rounded=0;" parent="1" edge="1">
          <mxGeometry width="50" height="50" relative="1" as="geometry">
            <mxPoint x="446" y="309.79999999999995" as="sourcePoint" />
            <mxPoint x="376" y="309.79999999999995" as="targetPoint" />
          </mxGeometry>
        </mxCell>
        <mxCell id="O6azC5yQEUZpfAAA6BgK-46" value="" style="endArrow=none;dashed=1;html=1;dashPattern=1 3;strokeWidth=2;rounded=0;" parent="1" edge="1">
          <mxGeometry width="50" height="50" relative="1" as="geometry">
            <mxPoint x="565.29" y="290" as="sourcePoint" />
            <mxPoint x="565" y="245" as="targetPoint" />
          </mxGeometry>
        </mxCell>
        <mxCell id="as4iFgCWQogI6HnyhADF-1" value="" style="endArrow=none;dashed=1;html=1;dashPattern=1 3;strokeWidth=2;rounded=0;" edge="1" parent="1">
          <mxGeometry width="50" height="50" relative="1" as="geometry">
            <mxPoint x="566" y="289" as="sourcePoint" />
            <mxPoint x="380" y="289" as="targetPoint" />
          </mxGeometry>
        </mxCell>
        <mxCell id="as4iFgCWQogI6HnyhADF-2" value="" style="endArrow=classic;startArrow=classic;html=1;rounded=0;" edge="1" parent="1">
          <mxGeometry width="50" height="50" relative="1" as="geometry">
            <mxPoint x="380" y="312.5" as="sourcePoint" />
            <mxPoint x="380" y="290" as="targetPoint" />
          </mxGeometry>
        </mxCell>
        <mxCell id="as4iFgCWQogI6HnyhADF-3" value="a2" style="text;html=1;strokeColor=none;fillColor=none;align=center;verticalAlign=middle;whiteSpace=wrap;rounded=0;" vertex="1" parent="1">
          <mxGeometry x="338.13" y="325" width="60" height="30" as="geometry" />
        </mxCell>
        <mxCell id="as4iFgCWQogI6HnyhADF-14" value="" style="endArrow=classic;html=1;rounded=0;fillColor=#e51400;strokeColor=#B20000;" edge="1" parent="1">
          <mxGeometry width="50" height="50" relative="1" as="geometry">
            <mxPoint x="340.5" y="509.79999999999995" as="sourcePoint" />
            <mxPoint x="370.5" y="510" as="targetPoint" />
          </mxGeometry>
        </mxCell>
        <mxCell id="as4iFgCWQogI6HnyhADF-15" value="" style="endArrow=classic;html=1;rounded=0;fillColor=#e51400;strokeColor=#B20000;" edge="1" parent="1">
          <mxGeometry width="50" height="50" relative="1" as="geometry">
            <mxPoint x="340.5" y="509.79999999999995" as="sourcePoint" />
            <mxPoint x="340.5" y="480" as="targetPoint" />
          </mxGeometry>
        </mxCell>
        <mxCell id="as4iFgCWQogI6HnyhADF-16" value="&lt;font color=&quot;#ff3333&quot; style=&quot;font-size: 9px;&quot;&gt;x0&lt;/font&gt;" style="text;html=1;strokeColor=none;fillColor=none;align=center;verticalAlign=middle;whiteSpace=wrap;rounded=0;" vertex="1" parent="1">
          <mxGeometry x="338.5" y="508" width="28" height="20" as="geometry" />
        </mxCell>
        <mxCell id="as4iFgCWQogI6HnyhADF-17" value="&lt;font color=&quot;#ff3333&quot; style=&quot;font-size: 9px;&quot;&gt;z0&lt;/font&gt;" style="text;html=1;strokeColor=none;fillColor=none;align=center;verticalAlign=middle;whiteSpace=wrap;rounded=0;" vertex="1" parent="1">
          <mxGeometry x="317.5" y="486" width="28" height="20" as="geometry" />
        </mxCell>
        <mxCell id="as4iFgCWQogI6HnyhADF-20" value="&lt;font color=&quot;#ff3333&quot; style=&quot;font-size: 9px;&quot;&gt;x1&lt;/font&gt;" style="text;html=1;strokeColor=none;fillColor=none;align=center;verticalAlign=middle;whiteSpace=wrap;rounded=0;" vertex="1" parent="1">
          <mxGeometry x="338" y="392" width="28" height="20" as="geometry" />
        </mxCell>
        <mxCell id="as4iFgCWQogI6HnyhADF-22" value="" style="endArrow=none;dashed=1;html=1;dashPattern=1 3;strokeWidth=2;rounded=0;fontSize=9;fontColor=#FF3333;" edge="1" parent="1">
          <mxGeometry width="50" height="50" relative="1" as="geometry">
            <mxPoint x="250" y="397" as="sourcePoint" />
            <mxPoint x="452" y="397" as="targetPoint" />
          </mxGeometry>
        </mxCell>
        <mxCell id="as4iFgCWQogI6HnyhADF-18" value="" style="endArrow=classic;html=1;rounded=0;fillColor=#e51400;strokeColor=#B20000;" edge="1" parent="1">
          <mxGeometry width="50" height="50" relative="1" as="geometry">
            <mxPoint x="340" y="396.79999999999995" as="sourcePoint" />
            <mxPoint x="370" y="397" as="targetPoint" />
          </mxGeometry>
        </mxCell>
        <mxCell id="as4iFgCWQogI6HnyhADF-19" value="" style="endArrow=classic;html=1;rounded=0;fillColor=#e51400;strokeColor=#B20000;" edge="1" parent="1">
          <mxGeometry width="50" height="50" relative="1" as="geometry">
            <mxPoint x="340" y="396.79999999999995" as="sourcePoint" />
            <mxPoint x="340" y="367" as="targetPoint" />
          </mxGeometry>
        </mxCell>
        <mxCell id="as4iFgCWQogI6HnyhADF-21" value="&lt;font color=&quot;#ff3333&quot; style=&quot;font-size: 9px;&quot;&gt;z1&lt;/font&gt;" style="text;html=1;strokeColor=none;fillColor=none;align=center;verticalAlign=middle;whiteSpace=wrap;rounded=0;" vertex="1" parent="1">
          <mxGeometry x="318" y="377" width="28" height="20" as="geometry" />
        </mxCell>
        <mxCell id="as4iFgCWQogI6HnyhADF-23" value="" style="endArrow=classic;html=1;rounded=0;fillColor=#e51400;strokeColor=#B20000;" edge="1" parent="1">
          <mxGeometry width="50" height="50" relative="1" as="geometry">
            <mxPoint x="445" y="395.92999999999984" as="sourcePoint" />
            <mxPoint x="490" y="396" as="targetPoint" />
          </mxGeometry>
        </mxCell>
        <mxCell id="as4iFgCWQogI6HnyhADF-24" value="" style="endArrow=classic;html=1;rounded=0;fillColor=#e51400;strokeColor=#B20000;" edge="1" parent="1">
          <mxGeometry width="50" height="50" relative="1" as="geometry">
            <mxPoint x="445.42" y="396" as="sourcePoint" />
            <mxPoint x="445.42" y="358" as="targetPoint" />
          </mxGeometry>
        </mxCell>
        <mxCell id="as4iFgCWQogI6HnyhADF-25" value="&lt;font style=&quot;font-size: 9px;&quot; color=&quot;#ff3333&quot;&gt;y2&lt;/font&gt;" style="text;html=1;strokeColor=none;fillColor=none;align=center;verticalAlign=middle;whiteSpace=wrap;rounded=0;" vertex="1" parent="1">
          <mxGeometry x="453" y="390" width="28" height="20" as="geometry" />
        </mxCell>
        <mxCell id="as4iFgCWQogI6HnyhADF-26" value="&lt;font style=&quot;font-size: 9px;&quot; color=&quot;#ff3333&quot;&gt;x2&lt;/font&gt;" style="text;html=1;strokeColor=none;fillColor=none;align=center;verticalAlign=middle;whiteSpace=wrap;rounded=0;" vertex="1" parent="1">
          <mxGeometry x="438" y="360" width="28" height="20" as="geometry" />
        </mxCell>
        <mxCell id="as4iFgCWQogI6HnyhADF-32" value="" style="endArrow=classic;html=1;rounded=0;fillColor=#e51400;strokeColor=#B20000;" edge="1" parent="1">
          <mxGeometry width="50" height="50" relative="1" as="geometry">
            <mxPoint x="445" y="310.29999999999995" as="sourcePoint" />
            <mxPoint x="490" y="310" as="targetPoint" />
          </mxGeometry>
        </mxCell>
        <mxCell id="as4iFgCWQogI6HnyhADF-33" value="" style="endArrow=classic;html=1;rounded=0;fillColor=#e51400;strokeColor=#B20000;" edge="1" parent="1">
          <mxGeometry width="50" height="50" relative="1" as="geometry">
            <mxPoint x="445" y="310.29999999999995" as="sourcePoint" />
            <mxPoint x="445" y="270" as="targetPoint" />
          </mxGeometry>
        </mxCell>
        <mxCell id="as4iFgCWQogI6HnyhADF-34" value="&lt;font color=&quot;#ff3333&quot; style=&quot;font-size: 9px;&quot;&gt;y3&lt;/font&gt;" style="text;html=1;strokeColor=none;fillColor=none;align=center;verticalAlign=middle;whiteSpace=wrap;rounded=0;" vertex="1" parent="1">
          <mxGeometry x="457" y="302.5" width="28" height="20" as="geometry" />
        </mxCell>
        <mxCell id="as4iFgCWQogI6HnyhADF-35" value="&lt;font color=&quot;#ff3333&quot; style=&quot;font-size: 9px;&quot;&gt;x3&lt;/font&gt;" style="text;html=1;strokeColor=none;fillColor=none;align=center;verticalAlign=middle;whiteSpace=wrap;rounded=0;" vertex="1" parent="1">
          <mxGeometry x="425" y="280" width="28" height="20" as="geometry" />
        </mxCell>
        <mxCell id="as4iFgCWQogI6HnyhADF-36" value="" style="endArrow=classic;html=1;rounded=0;fillColor=#e51400;strokeColor=#B20000;" edge="1" parent="1">
          <mxGeometry width="50" height="50" relative="1" as="geometry">
            <mxPoint x="565" y="288.79999999999995" as="sourcePoint" />
            <mxPoint x="630" y="289" as="targetPoint" />
          </mxGeometry>
        </mxCell>
        <mxCell id="as4iFgCWQogI6HnyhADF-37" value="" style="endArrow=classic;html=1;rounded=0;fillColor=#e51400;strokeColor=#B20000;" edge="1" parent="1">
          <mxGeometry width="50" height="50" relative="1" as="geometry">
            <mxPoint x="565" y="288.79999999999995" as="sourcePoint" />
            <mxPoint x="565" y="350" as="targetPoint" />
          </mxGeometry>
        </mxCell>
        <mxCell id="as4iFgCWQogI6HnyhADF-38" value="&lt;font color=&quot;#ff3333&quot; style=&quot;font-size: 9px;&quot;&gt;z4,&lt;/font&gt;&lt;font color=&quot;#ff3333&quot; style=&quot;font-size: 9px;&quot;&gt;x5&lt;/font&gt;" style="text;html=1;strokeColor=none;fillColor=none;align=center;verticalAlign=middle;whiteSpace=wrap;rounded=0;" vertex="1" parent="1">
          <mxGeometry x="589" y="272" width="28" height="20" as="geometry" />
        </mxCell>
        <mxCell id="as4iFgCWQogI6HnyhADF-39" value="&lt;font color=&quot;#ff3333&quot; style=&quot;font-size: 9px;&quot;&gt;x4,y5&lt;/font&gt;" style="text;html=1;strokeColor=none;fillColor=none;align=center;verticalAlign=middle;whiteSpace=wrap;rounded=0;" vertex="1" parent="1">
          <mxGeometry x="567" y="317.5" width="28" height="20" as="geometry" />
        </mxCell>
        <mxCell id="as4iFgCWQogI6HnyhADF-43" value="&lt;font style=&quot;font-size: 9px;&quot; color=&quot;#ff3333&quot;&gt;x6&lt;/font&gt;" style="text;html=1;strokeColor=none;fillColor=none;align=center;verticalAlign=middle;whiteSpace=wrap;rounded=0;" vertex="1" parent="1">
          <mxGeometry x="615" y="336.13" width="28" height="20" as="geometry" />
        </mxCell>
        <mxCell id="as4iFgCWQogI6HnyhADF-44" value="&lt;font style=&quot;font-size: 9px;&quot; color=&quot;#ff3333&quot;&gt;z6&lt;/font&gt;" style="text;html=1;strokeColor=none;fillColor=none;align=center;verticalAlign=middle;whiteSpace=wrap;rounded=0;" vertex="1" parent="1">
          <mxGeometry x="637" y="320" width="28" height="20" as="geometry" />
        </mxCell>
        <mxCell id="as4iFgCWQogI6HnyhADF-45" value="" style="ellipse;whiteSpace=wrap;html=1;aspect=fixed;fillColor=default;" vertex="1" parent="1">
          <mxGeometry x="618" y="314" width="25" height="25" as="geometry" />
        </mxCell>
        <mxCell id="as4iFgCWQogI6HnyhADF-47" value="" style="ellipse;whiteSpace=wrap;html=1;aspect=fixed;fillColor=default;" vertex="1" parent="1">
          <mxGeometry x="624" y="320" width="13" height="13" as="geometry" />
        </mxCell>
        <mxCell id="as4iFgCWQogI6HnyhADF-49" value="" style="endArrow=classic;html=1;rounded=0;fillColor=#e51400;strokeColor=#B20000;" edge="1" parent="1">
          <mxGeometry width="50" height="50" relative="1" as="geometry">
            <mxPoint x="630" y="327.29999999999995" as="sourcePoint" />
            <mxPoint x="663" y="348" as="targetPoint" />
          </mxGeometry>
        </mxCell>
        <mxCell id="as4iFgCWQogI6HnyhADF-50" value="" style="endArrow=classic;html=1;rounded=0;fillColor=#e51400;strokeColor=#B20000;" edge="1" parent="1">
          <mxGeometry width="50" height="50" relative="1" as="geometry">
            <mxPoint x="630" y="327.29999999999995" as="sourcePoint" />
            <mxPoint x="610" y="360" as="targetPoint" />
          </mxGeometry>
        </mxCell>
        <mxCell id="as4iFgCWQogI6HnyhADF-53" value="" style="endArrow=none;dashed=1;html=1;dashPattern=1 3;strokeWidth=2;rounded=0;fontSize=9;fontColor=#FF3333;" edge="1" parent="1">
          <mxGeometry width="50" height="50" relative="1" as="geometry">
            <mxPoint x="630" y="328" as="sourcePoint" />
            <mxPoint x="672" y="276" as="targetPoint" />
          </mxGeometry>
        </mxCell>
        <mxCell id="as4iFgCWQogI6HnyhADF-54" value="" style="endArrow=none;dashed=1;html=1;dashPattern=1 3;strokeWidth=2;rounded=0;fontSize=9;fontColor=#FF3333;" edge="1" parent="1">
          <mxGeometry width="50" height="50" relative="1" as="geometry">
            <mxPoint x="564.9999999999999" y="289" as="sourcePoint" />
            <mxPoint x="609" y="240" as="targetPoint" />
          </mxGeometry>
        </mxCell>
        <mxCell id="as4iFgCWQogI6HnyhADF-55" value="" style="endArrow=classic;startArrow=classic;html=1;rounded=0;fontSize=9;fontColor=#FF3333;" edge="1" parent="1">
          <mxGeometry width="50" height="50" relative="1" as="geometry">
            <mxPoint x="672" y="275" as="sourcePoint" />
            <mxPoint x="609" y="239" as="targetPoint" />
          </mxGeometry>
        </mxCell>
        <mxCell id="as4iFgCWQogI6HnyhADF-56" value="d5" style="text;html=1;strokeColor=none;fillColor=none;align=center;verticalAlign=middle;whiteSpace=wrap;rounded=0;rotation=30;" vertex="1" parent="1">
          <mxGeometry x="617" y="234" width="60" height="30" as="geometry" />
        </mxCell>
      </root>
    </mxGraphModel>
  </diagram>
</mxfile>
